<?xml version="1.0" standalone="no"?>
<!DOCTYPE svg PUBLIC "-//W3C//DTD SVG 20010904//EN"
 "http://www.w3.org/TR/2001/REC-SVG-20010904/DTD/svg10.dtd">
<svg version="1.0" xmlns="http://www.w3.org/2000/svg"
 width="772.000000pt" height="772.000000pt" viewBox="0 0 772.000000 772.000000"
 preserveAspectRatio="xMidYMid meet">
<metadata>
Created by potrace 1.16, written by Peter Selinger 2001-2019
</metadata>
<g transform="translate(0.000000,772.000000) scale(0.100000,-0.100000)"
fill="#000000" stroke="none">
<path d="M3280 7280 l0 -150 -150 0 -149 0 -3 -147 -3 -148 -147 -3 -148 -3
-2 -297 -3 -297 -147 -3 -147 -3 -3 -147 -3 -147 -747 -3 -748 -2 0 -150 0
-150 -150 0 -150 0 0 -152 0 -153 150 3 150 3 0 -150 0 -151 150 0 150 0 0
-150 0 -150 150 0 150 0 0 -150 0 -150 150 0 150 0 0 150 0 150 150 0 150 0 0
150 0 150 300 0 300 0 0 -151 0 -150 -150 3 -150 3 0 -152 0 -153 -150 0 -150
0 0 -151 0 -150 -122 1 c-68 1 -136 1 -153 1 l-30 -1 3 -150 3 -150 -150 0
-151 0 0 -151 0 -150 -150 3 -150 3 0 -602 0 -603 150 0 150 0 0 -150 0 -150
450 0 451 0 -3 -148 -3 -147 -147 -3 -148 -3 0 -149 0 -150 -150 0 -149 0 -3
-147 -3 -148 -298 0 -297 0 0 -152 0 -153 -150 0 -150 0 0 -300 0 -300 1350 0
1350 0 2 448 3 447 148 3 147 3 0 149 0 150 150 0 150 0 0 -150 0 -150 150 0
150 0 0 -450 0 -450 1350 0 1350 0 0 300 0 300 -150 0 -150 0 0 150 0 150
-300 0 -300 0 0 150 0 150 -151 0 -150 0 3 150 3 150 -30 1 c-16 0 -85 0 -152
-1 l-123 -1 0 150 0 151 450 0 450 0 0 150 0 150 150 0 150 0 0 600 0 600
-150 0 -150 0 0 150 0 150 -151 0 -150 0 3 150 3 150 -150 2 -150 3 -3 1348
-2 1347 -150 0 -150 0 0 150 0 150 -150 0 -150 0 0 150 0 150 -1050 0 -1050 0
0 -150z m-300 -1800 l0 -450 -150 0 -150 0 0 450 0 450 150 0 150 0 0 -450z
m2550 -150 l150 0 0 -450 0 -450 -1050 0 -1050 0 0 150 0 150 -150 0 -150 0 0
450 0 450 300 0 300 0 0 -150 0 -150 150 0 150 0 0 -300 0 -300 300 0 300 0 0
300 0 300 -150 0 -150 0 0 150 0 150 448 2 447 3 3 -152 3 -153 149 0z m-2550
-1050 l0 -150 150 0 150 0 0 -150 0 -150 150 0 150 0 0 -150 0 -150 750 0 750
0 0 150 0 150 150 0 150 0 0 150 0 150 300 0 300 0 0 -150 0 -150 150 0 150 0
0 -300 0 -300 -450 0 -450 0 0 150 0 150 -150 0 -150 0 0 -450 0 -450 -1050 0
-1050 0 0 450 0 450 -150 0 -150 0 0 -150 0 -150 -300 0 -300 0 0 150 0 150
-150 0 -150 0 0 150 0 150 150 0 150 0 0 150 0 150 150 0 150 0 0 150 0 150
300 0 300 0 0 -150z m-600 -1650 l0 -300 -150 0 -150 0 0 150 0 150 -150 0
-150 0 0 150 0 150 300 0 300 0 0 -300z m3900 150 l0 -150 -150 0 -150 0 0
-150 0 -150 -150 0 -150 0 0 300 0 300 300 0 300 0 0 -150z m-3000 -750 l0
-300 150 0 150 0 0 300 0 300 150 0 150 0 0 -150 0 -150 150 0 150 0 0 150 0
150 450 0 450 0 0 -150 0 -150 150 0 150 0 0 -150 0 -150 150 0 150 0 0 -300
0 -300 300 0 300 0 0 -150 0 -150 300 0 300 0 0 -150 0 -150 -1050 0 -1050 0
0 300 0 300 -150 0 -150 0 0 150 0 150 -150 0 -150 0 0 150 0 150 -150 0 -150
0 0 -150 0 -150 -150 0 -150 0 0 -150 0 -150 -150 0 -150 0 0 -300 0 -300
-1050 0 -1050 0 0 150 0 150 300 0 300 0 0 150 0 150 300 0 300 0 0 300 0 300
150 0 150 0 0 150 0 150 150 0 150 0 0 150 0 150 150 0 150 0 0 -300z"/>
<path d="M5080 5030 l0 -300 150 0 150 0 0 300 0 300 -150 0 -150 0 0 -300z"/>
</g>
</svg>
